<svg xmlns="http://www.w3.org/2000/svg" viewBox="460 580 1125 870" width="1024" height="792" preserveAspectRatio="xMidYMid meet" version="1.1">
  <defs>
    <!-- Drop shadow: soft black at 45% opacity, slight downward offset. Makes the mark
         pop on light README backgrounds and the editor's cream theme. -->
    <filter id="verso-drop-shadow" x="-20%" y="-20%" width="140%" height="140%">
      <feDropShadow dx="0" dy="22" stdDeviation="30" flood-color="#000000" flood-opacity="0.45"/>
    </filter>
    <!-- Mask: white shapes = visible, black shapes = cut out. Lets the inner counters
         of the V and O become truly transparent so the logo works on any backdrop. -->
    <mask id="verso-mask" maskUnits="userSpaceOnUse" x="0" y="0" width="2048" height="2048">
      <rect width="2048" height="2048" fill="black"/>
      <path fill="white" d="M 776.461 707.389 C 779.809 706.828 790.149 706.751 793.98 706.736 C 829.914 706.643 864.429 720.748 890.013 745.981 C 908.632 764.648 921.974 787.914 928.684 813.411 C 937.397 845.964 935.011 887.385 935.012 921.723 L 935.014 1031.54 C 947.982 1032.94 960.515 1037.03 971.808 1043.56 C 994.565 1056.5 1010.6 1075.89 1017.28 1101.38 C 1023.53 1124.57 1020.19 1149.29 1008 1169.98 C 980.066 1217.2 918.829 1230.09 872.495 1201.62 C 851.527 1188.95 836.495 1168.42 830.745 1144.6 C 825.058 1121.67 828.921 1097.41 841.449 1077.38 C 857.338 1051.76 881.465 1039.08 909.89 1032.36 C 909.302 993.41 909.083 954.453 909.233 915.497 C 909.322 859.428 916.454 812.029 875.715 766.772 C 828.029 718.765 752.447 720.173 704.497 766.255 C 661.292 807.777 668.814 880.097 668.806 934.961 C 709.248 941.282 743.231 966.889 750.894 1008.7 C 755.109 1031.4 749.956 1054.84 736.61 1073.68 C 721.269 1095.7 699.996 1109.27 673.517 1113.75 C 648.876 1117.95 623.584 1112.01 603.394 1097.27 C 583.488 1082.95 569.175 1061.89 565.278 1037.49 C 561.704 1014.39 567.485 990.831 581.339 972.015 C 597.163 950.514 617.673 939.39 643.735 935.272 C 642.911 873.653 637.035 807.808 678.365 758.412 C 705.221 726.316 735.399 711.833 776.461 707.389 z"/>
      <path fill="black" d="M 924.513 1039.09 C 971.675 1039.2 1009.77 1077.61 1009.48 1124.77 C 1009.2 1171.93 970.64 1209.88 923.48 1209.42 C 876.571 1208.96 838.867 1170.65 839.152 1123.74 C 839.436 1076.83 877.602 1038.98 924.513 1039.09 z"/>
      <path fill="white" d="M 1118.59 831.384 C 1136.97 829.37 1159.76 835.488 1175.6 844.854 C 1196.71 857.439 1212.02 877.828 1218.22 901.612 C 1224.33 925.441 1220.57 950.729 1207.78 971.746 C 1192.2 997.374 1169.2 1009.55 1140.96 1016.33 L 1141.21 1131 C 1141.23 1158.76 1139.31 1203.5 1145.63 1228.78 C 1150.71 1248.37 1160.72 1266.34 1174.72 1280.97 C 1195.96 1303.08 1225.15 1315.78 1255.8 1316.25 C 1289.25 1316.62 1318.34 1305.36 1342.49 1282.04 C 1386.33 1239.73 1379.48 1172.09 1379.85 1114.48 C 1348.56 1107.51 1322.07 1092.03 1307.05 1062.55 C 1296.59 1041.76 1294.9 1017.65 1302.35 995.601 C 1310.22 972.824 1326.85 954.129 1348.56 943.666 C 1374.09 931.237 1398.84 931.47 1425.26 940.466 C 1454.26 952.338 1476.69 976.093 1482.83 1007.36 C 1487.39 1030.52 1482.44 1054.55 1469.1 1074.02 C 1453.77 1096.46 1431.29 1109.12 1404.96 1113.98 C 1404.74 1178.57 1412.22 1243.02 1365.41 1294.69 C 1339.64 1322.6 1303.94 1339.24 1266 1341.03 C 1190.15 1344.31 1122.43 1285.48 1116.83 1211.06 C 1112.09 1148.05 1116.66 1080.91 1114.28 1017.37 C 1095.13 1012.72 1081.47 1008.11 1065.52 995.764 C 1046.33 981.107 1033.94 959.267 1031.19 935.276 C 1024.51 878.194 1063.39 837.825 1118.59 831.384 z"/>
      <path fill="black" d="M 1111.36 840.273 C 1157.65 832.466 1201.5 863.654 1209.31 909.937 C 1217.12 956.219 1185.94 1000.07 1139.66 1007.89 C 1093.37 1015.72 1049.5 984.526 1041.69 938.234 C 1033.87 891.942 1065.07 848.081 1111.36 840.273 z"/>
    </mask>
  </defs>
  <!-- Single pink shape, cut by the mask, with the soft drop shadow filter applied. -->
  <rect x="0" y="0" width="2048" height="2048" fill="#ff2d87" mask="url(#verso-mask)" filter="url(#verso-drop-shadow)"/>
</svg>
